<svg width="1335" height="185" viewBox="0 0 1335 185" fill="none" xmlns="http://www.w3.org/2000/svg">
<path d="M172.336 97.5947H201.395C207.095 97.5948 211.713 102.212 211.713 107.912V125.055C211.713 130.755 207.095 135.372 201.395 135.372H176.05C173.312 135.372 170.687 136.462 168.752 138.397L125.259 181.883C123.324 183.819 120.699 184.908 117.961 184.908H97.0534C91.4612 184.908 86.8796 180.449 86.736 174.856L86.2848 157.354C86.1343 151.554 90.7947 146.765 96.6022 146.765H114.598C117.337 146.765 119.961 145.675 121.897 143.739L165.023 100.613C166.959 98.6775 169.583 97.5879 172.322 97.5879L172.336 97.5947Z" fill="black"/>
<path d="M201.395 22.083C207.095 22.083 211.713 26.7004 211.713 32.4004V49.543C211.713 55.2429 207.095 59.8604 201.395 59.8604H176.05C173.312 59.8604 170.687 60.95 168.752 62.8857L125.259 106.378C123.324 108.314 120.699 109.403 117.961 109.403H92.5582C89.8983 109.403 87.339 110.429 85.4176 112.271L36.5914 159.061C34.6699 160.903 32.1098 161.929 29.4498 161.929H11.6549C5.95497 161.929 1.33753 157.304 1.33753 151.611V133.995C1.33777 128.295 5.95512 123.679 11.6549 123.679H29.3209C32.0598 123.679 34.6839 122.588 36.6198 120.652L82.9869 74.2861C84.9228 72.3503 87.5469 71.2598 90.2858 71.2598H114.598C117.337 71.2598 119.961 70.1702 121.897 68.2344L165.023 25.1084C166.959 23.1726 169.583 22.083 172.322 22.083H201.395Z" fill="black"/>
<path d="M115.114 0C120.814 0 125.431 4.61743 125.431 10.3174V27.46C125.431 33.1599 120.814 37.7773 115.114 37.7773H89.7692C87.0304 37.7773 84.4062 38.867 82.4703 40.8027L38.9782 84.2949C37.0423 86.2306 34.418 87.3203 31.6793 87.3203H10.7731C5.1807 87.3203 0.599138 82.8609 0.455697 77.2686L0.0035481 59.7676C-0.147015 53.9673 4.5135 49.1847 10.3209 49.1846H28.317C31.0558 49.1846 33.68 48.0949 35.6159 46.1592L78.7418 3.0332C80.6776 1.09742 83.3019 0.00689882 86.0407 0.00683594L86.0553 0H115.114Z" fill="black"/>
<path fill-rule="evenodd" clip-rule="evenodd" d="M445.716 55.0117C452.121 55.0117 457.897 56.6483 463.043 59.9229C468.225 63.1614 472.327 67.9658 475.35 74.335C478.408 80.6683 479.937 88.4412 479.938 97.6533C479.938 106.757 478.445 114.494 475.458 120.863C472.471 127.233 468.405 132.091 463.259 135.438C458.113 138.784 452.284 140.457 445.771 140.457C441.021 140.457 437.08 139.665 433.949 138.082C430.819 136.499 428.3 134.591 426.393 132.36C424.521 130.093 423.064 127.953 422.021 125.938H421.211V170.091H401.671V56.0908H420.887V69.8008H422.021C423.028 67.7858 424.449 65.6448 426.284 63.3779C428.119 61.0749 430.603 59.1135 433.733 57.4941C436.864 55.8389 440.858 55.0118 445.716 55.0117ZM440.318 71.043C436.144 71.043 432.599 72.1399 429.685 74.335C426.77 76.53 424.557 79.6072 423.046 83.5654C421.571 87.5238 420.833 92.1842 420.833 97.5459C420.833 102.907 421.588 107.604 423.1 111.634C424.647 115.664 426.861 118.812 429.739 121.079C432.654 123.31 436.18 124.426 440.318 124.426C444.637 124.426 448.253 123.275 451.168 120.972C454.083 118.633 456.278 115.448 457.753 111.418C459.264 107.352 460.02 102.728 460.021 97.5459C460.021 92.4001 459.283 87.8293 457.808 83.835C456.332 79.8407 454.136 76.7104 451.222 74.4434C448.307 72.1764 444.672 71.043 440.318 71.043Z" fill="black"/>
<path fill-rule="evenodd" clip-rule="evenodd" d="M526.27 55.0117C531.379 55.0117 536.201 55.8389 540.735 57.4941C545.305 59.1134 549.336 61.6324 552.826 65.0508C556.353 68.4692 559.124 72.8237 561.139 78.1133C563.154 83.367 564.162 89.6286 564.162 96.8975V102.89H506.411C506.469 107.504 507.347 111.48 509.051 114.818C510.814 118.237 513.28 120.864 516.446 122.699C519.613 124.498 523.319 125.397 527.565 125.397C530.408 125.397 532.981 125.002 535.284 124.21C537.587 123.382 539.584 122.177 541.275 120.594C542.967 119.01 544.244 117.049 545.107 114.71L563.353 116.762C562.201 121.584 560.005 125.793 556.767 129.392C553.564 132.954 549.462 135.725 544.46 137.704C539.458 139.647 533.736 140.619 527.295 140.619C518.983 140.619 511.804 138.892 505.759 135.438C499.749 131.947 495.125 127.017 491.887 120.647C488.648 114.242 487.028 106.704 487.028 98.0312C487.028 89.5029 488.648 82.0184 491.887 75.5771C495.161 69.0999 499.731 64.0614 505.597 60.4629C511.462 56.8286 518.353 55.0118 526.27 55.0117ZM526.54 70.2334C522.546 70.2334 519.036 71.2043 516.014 73.1475C512.991 75.0546 510.635 77.5737 508.943 80.7041C507.466 83.4653 506.636 86.4706 506.448 89.7188H545.432C545.396 85.9765 544.586 82.6481 543.003 79.7334C541.42 76.7826 539.206 74.4608 536.363 72.7695C533.557 71.0784 530.282 70.2335 526.54 70.2334Z" fill="black"/>
<path fill-rule="evenodd" clip-rule="evenodd" d="M338.89 26.9434C348.569 26.9434 357.224 29.1924 364.853 33.6904C372.517 38.1885 378.562 44.6836 382.988 53.1758C387.45 61.6322 389.682 71.8166 389.682 83.7275C389.682 95.6384 387.45 105.84 382.988 114.332C378.562 122.788 372.517 129.267 364.853 133.765C357.224 138.263 348.569 140.512 338.89 140.512C329.21 140.512 320.537 138.263 312.872 133.765C305.243 129.231 299.198 122.735 294.736 114.278C290.31 105.786 288.097 95.6024 288.097 83.7275C288.097 71.8166 290.31 61.6322 294.736 53.1758C299.198 44.6836 305.244 38.1885 312.872 33.6904C320.537 29.1923 329.21 26.9434 338.89 26.9434ZM338.89 44.918C332.88 44.918 327.572 46.4107 322.966 49.3975C318.36 52.3482 314.743 56.7211 312.116 62.5146C309.525 68.2721 308.23 75.3433 308.23 83.7275C308.23 92.1118 309.525 99.2007 312.116 104.994C314.743 110.752 318.36 115.124 322.966 118.11C327.572 121.061 332.88 122.537 338.89 122.537C344.899 122.537 350.207 121.061 354.812 118.11C359.418 115.124 363.018 110.752 365.608 104.994C368.235 99.2007 369.549 92.1118 369.549 83.7275C369.549 75.3433 368.235 68.2721 365.608 62.5146C363.017 56.7211 359.419 52.3482 354.812 49.3975C350.207 46.4109 344.899 44.918 338.89 44.918Z" fill="black"/>
<path d="M901.341 26.9434C907.458 26.9434 913.162 27.8424 918.452 29.6416C923.742 31.4049 928.438 33.9246 932.54 37.1992C936.678 40.4738 940.079 44.3604 942.742 48.8584C945.405 53.3564 947.15 58.3224 947.978 63.7559H927.574C926.675 60.8411 925.433 58.2317 923.85 55.9287C922.302 53.5899 920.431 51.5927 918.236 49.9375C916.077 48.2822 913.594 47.0405 910.787 46.2129C907.98 45.3493 904.922 44.918 901.611 44.918C895.674 44.918 890.384 46.4109 885.742 49.3975C881.1 52.3842 877.447 56.7748 874.784 62.5684C872.157 68.3259 870.844 75.3428 870.844 83.6191C870.844 91.9675 872.157 99.0385 874.784 104.832C877.411 110.626 881.064 115.034 885.742 118.057C890.42 121.043 895.854 122.537 902.043 122.537C907.657 122.537 912.515 121.457 916.617 119.298C920.755 117.139 923.94 114.08 926.171 110.122C928.304 106.303 929.414 101.859 929.508 96.79H904.04V81.1367H948.896V94.415C948.895 103.879 946.88 112.066 942.85 118.975C938.819 125.884 933.278 131.21 926.225 134.952C919.172 138.659 911.075 140.512 901.935 140.512C891.751 140.512 882.809 138.226 875.108 133.656C867.444 129.05 861.452 122.519 857.134 114.062C852.852 105.57 850.711 95.4941 850.711 83.835C850.711 74.9108 851.97 66.9398 854.489 59.9229C857.044 52.906 860.607 46.9505 865.177 42.0566C869.747 37.1269 875.108 33.384 881.262 30.8291C887.415 28.2383 894.108 26.9434 901.341 26.9434Z" fill="black"/>
<path d="M618.981 55.0117C624.703 55.0117 629.687 56.2347 633.934 58.6816C638.216 61.1286 641.526 64.6734 643.865 69.3154C646.24 73.9574 647.41 79.5889 647.374 86.21V139H627.834V89.2334C627.834 83.6917 626.394 79.3553 623.516 76.2246C620.673 73.0939 616.732 71.5283 611.694 71.5283C608.276 71.5284 605.235 72.2846 602.572 73.7959C599.946 75.2713 597.877 77.4121 596.365 80.2188C594.89 83.0256 594.152 86.4266 594.152 90.4209V139H574.612V56.0908H593.288V70.1787H594.26C596.167 65.5368 599.208 61.8481 603.382 59.1133C607.592 56.3785 612.792 55.0118 618.981 55.0117Z" fill="black"/>
<path fill-rule="evenodd" clip-rule="evenodd" d="M703.476 28.4541C711.968 28.4541 719.093 29.9301 724.851 32.8809C730.644 35.8316 735.016 39.9702 737.967 45.2959C740.953 50.5856 742.447 56.7567 742.447 63.8096C742.447 70.8985 740.936 77.0518 737.913 82.2695C734.926 87.4513 730.518 91.4638 724.688 94.3066C724.005 94.6355 723.304 94.944 722.584 95.2344L746.495 139H724.148L702.424 98.5166H682.047V139H662.021V28.4541H703.476ZM682.047 81.8916H700.507C705.473 81.8916 709.539 81.2082 712.706 79.8408C715.873 78.4374 718.211 76.404 719.723 73.7412C721.27 71.0424 722.044 67.7318 722.044 63.8096C722.044 59.8873 721.27 56.5403 719.723 53.7695C718.175 50.9629 715.818 48.8397 712.651 47.4004C709.485 45.9251 705.4 45.1875 700.398 45.1875H682.047V81.8916Z" fill="black"/>
<path fill-rule="evenodd" clip-rule="evenodd" d="M850.232 139H828.857L819.698 111.741H778.139L768.996 139H747.621L786.539 28.4541H811.261L850.232 139ZM783.533 95.6562H814.294L799.332 51.125H798.468L783.533 95.6562Z" fill="black"/>
<path d="M1037.86 139.705H1008.9V54.1694H1038.44C1046.93 54.1694 1054.22 55.8818 1060.31 59.3066C1066.43 62.7035 1071.13 67.5901 1074.41 73.9663C1077.7 80.3425 1079.34 87.9717 1079.34 96.8538C1079.34 105.764 1077.68 113.421 1074.37 119.825C1071.09 126.229 1066.34 131.143 1060.14 134.568C1053.96 137.993 1046.54 139.705 1037.86 139.705ZM1024.38 126.299H1037.11C1043.06 126.299 1048.02 125.213 1052 123.041C1055.98 120.841 1058.97 117.57 1060.98 113.226C1062.98 108.854 1063.98 103.397 1063.98 96.8538C1063.98 90.3105 1062.98 84.881 1060.98 80.5653C1058.97 76.2216 1056.01 72.9779 1052.09 70.8339C1048.19 68.6621 1043.35 67.5762 1037.56 67.5762H1024.38V126.299Z" fill="#9F9FA9"/>
<path d="M1170.41 96.9374C1170.41 106.154 1168.69 114.047 1165.24 120.618C1161.82 127.162 1157.14 132.174 1151.22 135.654C1145.32 139.134 1138.63 140.875 1131.15 140.875C1123.66 140.875 1116.96 139.134 1111.03 135.654C1105.13 132.146 1100.46 127.12 1097.01 120.577C1093.59 114.006 1091.88 106.126 1091.88 96.9374C1091.88 87.7211 1093.59 79.8413 1097.01 73.2981C1100.46 66.7269 1105.13 61.7012 1111.03 58.2207C1116.96 54.7402 1123.66 53 1131.15 53C1138.63 53 1145.32 54.7402 1151.22 58.2207C1157.14 61.7012 1161.82 66.7269 1165.24 73.2981C1168.69 79.8413 1170.41 87.7211 1170.41 96.9374ZM1154.85 96.9374C1154.85 90.4498 1153.83 84.9785 1151.8 80.5235C1149.8 76.0407 1147.02 72.6577 1143.46 70.3745C1139.9 68.0634 1135.79 66.9079 1131.15 66.9079C1126.5 66.9079 1122.4 68.0634 1118.83 70.3745C1115.27 72.6577 1112.48 76.0407 1110.45 80.5235C1108.44 84.9785 1107.44 90.4498 1107.44 96.9374C1107.44 103.425 1108.44 108.91 1110.45 113.393C1112.48 117.848 1115.27 121.231 1118.83 123.542C1122.4 125.825 1126.5 126.967 1131.15 126.967C1135.79 126.967 1139.9 125.825 1143.46 123.542C1147.02 121.231 1149.8 117.848 1151.8 113.393C1153.83 108.91 1154.85 103.425 1154.85 96.9374Z" fill="#9F9FA9"/>
<path d="M1258.2 83.0294H1242.6C1242.15 80.4678 1241.33 78.1985 1240.14 76.2216C1238.94 74.2169 1237.45 72.5184 1235.67 71.1262C1233.89 69.7341 1231.86 68.6899 1229.58 67.9938C1227.32 67.2699 1224.89 66.9079 1222.27 66.9079C1217.63 66.9079 1213.51 68.0774 1209.92 70.4162C1206.33 72.7273 1203.52 76.1242 1201.49 80.607C1199.46 85.062 1198.45 90.5055 1198.45 96.9374C1198.45 103.481 1199.46 108.994 1201.49 113.477C1203.55 117.931 1206.36 121.301 1209.92 123.584C1213.51 125.839 1217.61 126.967 1222.23 126.967C1224.79 126.967 1227.19 126.633 1229.41 125.964C1231.66 125.268 1233.68 124.252 1235.46 122.916C1237.27 121.579 1238.79 119.936 1240.01 117.987C1241.26 116.038 1242.12 113.811 1242.6 111.305L1258.2 111.388C1257.62 115.453 1256.35 119.268 1254.41 122.832C1252.49 126.396 1249.97 129.542 1246.85 132.271C1243.74 134.972 1240.09 137.088 1235.92 138.619C1231.75 140.123 1227.12 140.875 1222.02 140.875C1214.51 140.875 1207.81 139.134 1201.91 135.654C1196.01 132.174 1191.37 127.148 1187.97 120.577C1184.58 114.006 1182.88 106.126 1182.88 96.9374C1182.88 87.7211 1184.59 79.8413 1188.01 73.2981C1191.44 66.7269 1196.1 61.7012 1201.99 58.2207C1207.89 54.7402 1214.57 53 1222.02 53C1226.78 53 1231.21 53.6682 1235.29 55.0047C1239.38 56.3412 1243.03 58.3042 1246.23 60.8937C1249.43 63.4553 1252.06 66.6016 1254.12 70.3327C1256.2 74.0359 1257.57 78.2682 1258.2 83.0294Z" fill="#9F9FA9"/>
<path d="M1318.83 77.6834C1318.44 74.0359 1316.8 71.1959 1313.91 69.1633C1311.04 67.1307 1307.31 66.1144 1302.72 66.1144C1299.49 66.1144 1296.73 66.6016 1294.42 67.5762C1292.11 68.5507 1290.34 69.8733 1289.12 71.5439C1287.89 73.2145 1287.27 75.1218 1287.24 77.2658C1287.24 79.0478 1287.64 80.5931 1288.45 81.9018C1289.28 83.2104 1290.41 84.3242 1291.83 85.243C1293.25 86.134 1294.82 86.8858 1296.55 87.4983C1298.27 88.1109 1300.01 88.626 1301.76 89.0437L1309.77 91.0484C1313 91.8002 1316.1 92.8165 1319.08 94.0973C1322.08 95.3781 1324.77 96.993 1327.13 98.9421C1329.53 100.891 1331.42 103.244 1332.81 106C1334.2 108.757 1334.9 111.987 1334.9 115.69C1334.9 120.702 1333.62 125.115 1331.06 128.93C1328.5 132.716 1324.8 135.682 1319.96 137.826C1315.14 139.942 1309.31 141 1302.47 141C1295.82 141 1290.05 139.97 1285.15 137.909C1280.28 135.849 1276.47 132.842 1273.72 128.888C1270.99 124.934 1269.52 120.117 1269.29 114.437H1284.53C1284.75 117.416 1285.67 119.894 1287.28 121.871C1288.89 123.848 1290.99 125.324 1293.58 126.299C1296.2 127.273 1299.12 127.76 1302.35 127.76C1305.71 127.76 1308.66 127.259 1311.19 126.257C1313.75 125.227 1315.76 123.807 1317.2 121.997C1318.65 120.159 1319.39 118.015 1319.41 115.565C1319.39 113.337 1318.73 111.5 1317.45 110.052C1316.17 108.576 1314.38 107.351 1312.07 106.376C1309.79 105.374 1307.12 104.483 1304.06 103.703L1294.33 101.197C1287.29 99.3876 1281.73 96.645 1277.64 92.9696C1273.58 89.2664 1271.55 84.352 1271.55 78.2264C1271.55 73.1867 1272.91 68.7735 1275.64 64.9867C1278.39 61.2 1282.13 58.2625 1286.86 56.1742C1291.59 54.0581 1296.95 53 1302.93 53C1308.99 53 1314.31 54.0581 1318.87 56.1742C1323.46 58.2625 1327.06 61.1721 1329.68 64.9032C1332.29 68.6064 1333.64 72.8665 1333.73 77.6834H1318.83Z" fill="#9F9FA9"/>
</svg>
