<svg width="91" height="17" viewBox="0 0 91 17" fill="none" xmlns="http://www.w3.org/2000/svg">
<path d="M15.3782 8.70898H17.971C18.4797 8.70898 18.8919 9.12113 18.8919 9.62988V11.1592C18.8917 11.6677 18.4795 12.0799 17.971 12.0801H15.7093C15.4653 12.0802 15.2315 12.1772 15.0589 12.3496L11.178 16.2295C11.0055 16.4023 10.7709 16.4998 10.5267 16.5H8.66045C8.42029 16.5 8.18993 16.4058 8.01787 16.2383C7.84582 16.0707 7.74583 15.8426 7.73955 15.6025L7.69951 14.041C7.69637 13.9182 7.71819 13.7961 7.76299 13.6816C7.80785 13.5671 7.87441 13.4621 7.96026 13.374C8.04612 13.2859 8.14963 13.2167 8.26299 13.1689C8.37619 13.1213 8.49757 13.0957 8.62041 13.0957H10.2259C10.4706 13.0957 10.7047 12.9996 10.8772 12.8271L14.7259 8.97852C14.8985 8.8057 15.133 8.7082 15.3772 8.70801L15.3782 8.70898Z" fill="#ffffff"/>
<path fill-rule="evenodd" clip-rule="evenodd" d="M86.7757 5.51465C87.2231 5.51465 87.5909 5.59075 87.8792 5.74316C88.1709 5.89231 88.4031 6.07303 88.5755 6.28516C88.7476 6.49373 88.8786 6.69056 88.9681 6.87598H89.0677V5.61328H90.8431V13.374C90.8431 14.027 90.6869 14.5676 90.3753 14.9951C90.0638 15.4225 89.6379 15.742 89.098 15.9541C88.5577 16.1662 87.9442 16.2725 87.2581 16.2725C86.6119 16.2725 86.057 16.1844 85.5931 16.0088C85.1291 15.8365 84.7556 15.6051 84.4739 15.3135C84.1922 15.0218 83.9964 14.6984 83.887 14.3438L85.5081 13.9512C85.581 14.1003 85.6873 14.2478 85.8265 14.3936C85.9657 14.5426 86.1528 14.6656 86.388 14.7617C86.6266 14.8611 86.9272 14.9102 87.2884 14.9102C87.7986 14.9101 88.2213 14.7866 88.556 14.5381C88.8907 14.2928 89.0579 13.8877 89.0579 13.3242V11.8779H88.9681C88.8753 12.0634 88.7396 12.2538 88.5608 12.4492C88.3852 12.6447 88.1513 12.8088 87.8597 12.9414C87.5713 13.074 87.2083 13.1406 86.7708 13.1406C86.1842 13.1406 85.6524 13.0026 85.1751 12.7275C84.7012 12.4492 84.323 12.0354 84.0413 11.4854C83.7629 10.9319 83.6244 10.239 83.6243 9.40723C83.6243 8.56875 83.7629 7.86086 84.0413 7.28418C84.323 6.70418 84.7027 6.26509 85.18 5.9668C85.6572 5.66521 86.1891 5.51467 86.7757 5.51465ZM87.2728 6.99121C86.8719 6.99125 86.5372 7.09505 86.2689 7.30371C86.0004 7.5125 85.7983 7.79951 85.6624 8.16406C85.5265 8.52533 85.4583 8.93676 85.4583 9.39746C85.4583 9.86461 85.5266 10.2738 85.6624 10.625C85.8016 10.973 86.0053 11.2449 86.2737 11.4404C86.5455 11.6326 86.8785 11.7285 87.2728 11.7285C87.6539 11.7285 87.9789 11.6358 88.2474 11.4502C88.5158 11.2646 88.7195 10.9974 88.8587 10.6494C88.9978 10.3016 89.0676 9.88434 89.0677 9.39746C89.0677 8.91687 88.9979 8.49506 88.8587 8.13379C88.7228 7.77274 88.5206 7.49272 88.2523 7.29395C87.9871 7.09183 87.6605 6.99121 87.2728 6.99121Z" fill="#ffffff"/>
<path fill-rule="evenodd" clip-rule="evenodd" d="M45.2688 5.51465C45.8588 5.51465 46.3916 5.66519 46.8655 5.9668C47.3426 6.26506 47.72 6.70754 47.9983 7.29395C48.28 7.8772 48.4212 8.59308 48.4212 9.44141C48.4212 10.2797 48.284 10.9926 48.0091 11.5791C47.734 12.1657 47.359 12.6136 46.8851 12.9219C46.4112 13.23 45.8744 13.3837 45.2747 13.3838C44.8373 13.3838 44.4742 13.3108 44.1858 13.165C43.8976 13.0192 43.6652 12.8441 43.4896 12.6387C43.3173 12.4299 43.1833 12.2324 43.0872 12.0469H43.012V16.1133H41.2122V5.61328H42.9827V6.87598H43.0872C43.18 6.69055 43.3109 6.49373 43.4798 6.28516C43.6488 6.07311 43.8771 5.89228 44.1653 5.74316C44.4536 5.59075 44.8216 5.51469 45.2688 5.51465ZM44.7718 6.99121C44.3874 6.99127 44.0607 7.09182 43.7923 7.29395C43.5239 7.49611 43.3201 7.78005 43.181 8.14453C43.0452 8.50899 42.9778 8.93805 42.9778 9.43164C42.9778 9.92547 43.0466 10.3583 43.1858 10.7295C43.3284 11.1007 43.533 11.3908 43.7981 11.5996C44.0665 11.8048 44.3909 11.9072 44.7718 11.9072C45.1695 11.9072 45.5033 11.802 45.7718 11.5898C46.0401 11.3745 46.2423 11.081 46.3782 10.71C46.5174 10.3354 46.5872 9.90891 46.5872 9.43164C46.5872 8.95775 46.519 8.5368 46.3831 8.16895C46.2472 7.80108 46.0451 7.51251 45.7767 7.30371C45.5082 7.0949 45.1728 6.99121 44.7718 6.99121Z" fill="#ffffff"/>
<path d="M17.971 1.9707C18.4797 1.9707 18.8919 2.38286 18.8919 2.8916V4.4209C18.8917 4.92943 18.4795 5.34165 17.971 5.3418H15.7093C15.4653 5.34187 15.2315 5.43897 15.0589 5.61133L11.178 9.49219C11.0925 9.57784 10.9901 9.64602 10.8782 9.69238C10.7665 9.73866 10.6466 9.76269 10.5257 9.7627H8.25908C8.02163 9.76263 7.79292 9.85436 7.62139 10.0186L3.26592 14.1934C3.09404 14.3584 2.86541 14.4492 2.62822 14.4492H1.04033C0.531592 14.4492 0.119435 14.0364 0.119435 13.5283V11.957C0.119435 11.4483 0.53256 11.0361 1.04131 11.0361H2.61651C2.86124 11.0361 3.09629 10.9398 3.26885 10.7666L7.40557 6.62891C7.57818 6.4561 7.81269 6.3586 8.05693 6.3584H10.2269C10.4709 6.35836 10.7057 6.26209 10.8782 6.08887L14.7269 2.24121C14.8995 2.06855 15.1341 1.97089 15.3782 1.9707H17.971Z" fill="#ffffff"/>
<path fill-rule="evenodd" clip-rule="evenodd" d="M79.0247 5.51465C79.3926 5.51465 79.7597 5.55738 80.1243 5.64355C80.4887 5.72974 80.8219 5.87251 81.1233 6.07129C81.4247 6.26677 81.6667 6.53327 81.8489 6.87109C82.0345 7.20916 82.1273 7.63255 82.1273 8.13965V13.25H80.3978V12.2012H80.3372C80.2278 12.4132 80.0741 12.6123 79.8753 12.7979C79.6798 12.9801 79.4323 13.1276 79.1341 13.2402C78.8392 13.3495 78.4926 13.4043 78.095 13.4043C77.6114 13.4042 77.176 13.3177 76.7884 13.1455C76.404 12.9699 76.0987 12.7114 75.8733 12.3701C75.6513 12.0288 75.5404 11.6078 75.5403 11.1074C75.5403 10.6766 75.6195 10.3198 75.7786 10.0381C75.9377 9.75645 76.155 9.5313 76.43 9.3623C76.7051 9.19327 77.015 9.06567 77.3597 8.97949C77.7077 8.89001 78.0676 8.82493 78.4388 8.78516C78.8861 8.73877 79.2493 8.69758 79.5276 8.66113C79.8058 8.62136 80.0082 8.56193 80.1341 8.48242C80.2632 8.39959 80.3274 8.27181 80.3274 8.09961V8.06934C80.3274 7.69494 80.2165 7.40466 79.9944 7.19922C79.7725 6.99395 79.4527 6.89167 79.0355 6.8916C78.5946 6.8916 78.2442 6.98745 77.9856 7.17969C77.7307 7.37178 77.5585 7.59877 77.469 7.86035L75.7884 7.62207C75.9209 7.15817 76.1398 6.7705 76.4446 6.45898C76.7496 6.14412 77.123 5.90871 77.5638 5.75293C78.0044 5.59394 78.4913 5.51469 79.0247 5.51465ZM80.3323 9.61035C80.276 9.65675 80.1801 9.70046 80.0442 9.74023C79.9117 9.77999 79.7626 9.81491 79.597 9.84473C79.4313 9.87455 79.2671 9.90063 79.1048 9.92383C78.9424 9.94703 78.8013 9.96683 78.6819 9.9834C78.4135 10.0199 78.1733 10.0802 77.9612 10.1631C77.7492 10.2459 77.5819 10.3616 77.4593 10.5107C77.3367 10.6565 77.2748 10.8453 77.2747 11.0771C77.2747 11.4086 77.3961 11.6591 77.638 11.8281C77.8799 11.9972 78.1883 12.082 78.5628 12.082C78.924 12.082 79.2372 12.0106 79.5023 11.8682C79.7674 11.7223 79.9711 11.5296 80.1136 11.291C80.2594 11.0524 80.3323 10.7924 80.3323 10.5107V9.61035Z" fill="#ffffff"/>
<path fill-rule="evenodd" clip-rule="evenodd" d="M53.2483 5.51465C53.719 5.51465 54.1637 5.5907 54.5813 5.74316C55.002 5.89228 55.3733 6.12382 55.6946 6.43848C56.0194 6.75326 56.2747 7.15457 56.4603 7.6416C56.6459 8.12548 56.7386 8.7026 56.7386 9.37207V9.92383H51.4202C51.4255 10.3488 51.5056 10.715 51.6624 11.0225C51.8248 11.3373 52.0524 11.58 52.344 11.749C52.6356 11.9146 52.9775 11.9971 53.3685 11.9971C53.6301 11.997 53.8674 11.9606 54.0794 11.8877C54.2913 11.8115 54.4755 11.7004 54.6312 11.5547C54.7868 11.4089 54.9042 11.228 54.9837 11.0127L56.6644 11.2021C56.5583 11.6461 56.3561 12.0339 56.0579 12.3652C55.7629 12.6934 55.3848 12.9486 54.9241 13.1309C54.4634 13.3098 53.9363 13.3994 53.3431 13.3994C52.5775 13.3994 51.9164 13.24 51.3597 12.9219C50.8062 12.6004 50.3796 12.1462 50.0813 11.5596C49.7831 10.9697 49.6341 10.2752 49.6341 9.47656C49.6341 8.69106 49.7831 8.00148 50.0813 7.4082C50.383 6.81161 50.8048 6.34804 51.345 6.0166C51.8851 5.68199 52.5194 5.5147 53.2483 5.51465ZM53.2737 6.91602C52.9058 6.91602 52.5824 7.0056 52.304 7.18457C52.0256 7.36023 51.8084 7.59251 51.6526 7.88086C51.5167 8.13508 51.4434 8.41191 51.4261 8.71094H55.014C55.0107 8.36627 54.9361 8.05947 54.7903 7.79102C54.6445 7.51924 54.4399 7.30519 54.178 7.14941C53.9197 6.99384 53.6181 6.91605 53.2737 6.91602Z" fill="#ffffff"/>
<path fill-rule="evenodd" clip-rule="evenodd" d="M34.8704 2.92871C35.7618 2.92879 36.5585 3.13656 37.261 3.55078C37.9669 3.96504 38.5243 4.56266 38.9319 5.34473C39.3429 6.12361 39.5481 7.06212 39.5481 8.15918C39.5481 9.256 39.3428 10.1955 38.9319 10.9775C38.5243 11.7564 37.967 12.3533 37.261 12.7676C36.5585 13.1818 35.7617 13.3896 34.8704 13.3896C33.9789 13.3896 33.1799 13.1818 32.4739 12.7676C31.7713 12.35 31.214 11.7515 30.803 10.9727C30.3955 10.1905 30.1917 9.25274 30.1917 8.15918C30.1917 7.06212 30.3954 6.12361 30.803 5.34473C31.214 4.56267 31.7714 3.96503 32.4739 3.55078C33.1799 3.13651 33.9789 2.92871 34.8704 2.92871ZM34.8704 4.58496C34.317 4.58496 33.8278 4.72209 33.4036 4.99707C32.9794 5.26885 32.6456 5.67146 32.4036 6.20508C32.165 6.73538 32.0462 7.38693 32.0462 8.15918C32.0462 8.93139 32.165 9.58457 32.4036 10.1182C32.6456 10.6484 32.9794 11.0511 33.4036 11.3262C33.8278 11.5978 34.317 11.7334 34.8704 11.7334C35.4236 11.7333 35.9122 11.5977 36.3362 11.3262C36.7605 11.0511 37.0927 10.6484 37.3313 10.1182C37.5733 9.58457 37.6936 8.93139 37.6937 8.15918C37.6937 7.38694 37.5733 6.73538 37.3313 6.20508C37.0927 5.67146 36.7605 5.26885 36.3362 4.99707C35.9122 4.72217 35.4236 4.58504 34.8704 4.58496Z" fill="#ffffff"/>
<path d="M62.3479 5.51465C62.8749 5.51465 63.3338 5.62717 63.7249 5.85254C64.1193 6.07792 64.4245 6.40448 64.6399 6.83203C64.8586 7.2595 64.9665 7.77804 64.9632 8.3877V13.25H63.1634V8.66602C63.1633 8.15571 63.031 7.75609 62.7659 7.46777C62.5041 7.17948 62.1409 7.03522 61.6771 7.03516C61.3622 7.03516 61.0815 7.10494 60.8362 7.24414C60.5944 7.38002 60.4041 7.5775 60.2649 7.83594C60.1291 8.09442 60.0609 8.40757 60.0608 8.77539V13.25H58.261V5.61328H59.9817V6.91113H60.0706C60.2463 6.48358 60.527 6.1435 60.9114 5.8916C61.2991 5.63989 61.7781 5.51465 62.3479 5.51465Z" fill="#ffffff"/>
<path fill-rule="evenodd" clip-rule="evenodd" d="M70.6907 3.06836C71.4727 3.06842 72.1293 3.20386 72.6595 3.47559C73.193 3.74736 73.5958 4.12869 73.8675 4.61914C74.1425 5.10626 74.2795 5.67476 74.2796 6.32422C74.2796 6.97691 74.1408 7.54394 73.8626 8.02441C73.5875 8.50169 73.1808 8.87195 72.6439 9.13379C72.5809 9.16411 72.5159 9.19198 72.4495 9.21875L74.6526 13.25H72.594L70.5931 9.52148H68.7161V13.25H66.8724V3.06836H70.6907ZM68.7161 7.99023H70.4173C70.8745 7.99019 71.2488 7.92668 71.5403 7.80078C71.832 7.67152 72.0476 7.4845 72.1868 7.23926C72.3293 6.9907 72.4007 6.68543 72.4007 6.32422C72.4006 5.9631 72.3293 5.65454 72.1868 5.39941C72.0443 5.14107 71.8269 4.946 71.5355 4.81348C71.2438 4.67759 70.8672 4.60938 70.4065 4.60938H68.7161V7.99023Z" fill="#ffffff"/>
<path d="M10.2718 0C10.7804 0 11.1935 0.412308 11.1937 0.920898V2.4502C11.1937 2.95895 10.7805 3.37109 10.2718 3.37109H8.01006C7.76596 3.37115 7.53139 3.4681 7.35869 3.64062L3.47881 7.52148C3.30619 7.6943 3.0717 7.7918 2.82744 7.79199H0.961232C0.721272 7.7917 0.490437 7.69782 0.318654 7.53027C0.147031 7.36274 0.0475743 7.1343 0.0413098 6.89453L0.000294141 5.33301C-0.00282599 5.21017 0.0189131 5.08803 0.0637707 4.97363C0.108675 4.85919 0.176151 4.75497 0.262013 4.66699C0.347881 4.57901 0.450451 4.50861 0.563771 4.46094C0.67693 4.41338 0.798444 4.38857 0.921193 4.38867H2.52666C2.77123 4.38867 3.00482 4.29146 3.17803 4.11914L7.02666 0.270508C7.1121 0.184878 7.21379 0.116737 7.32549 0.0703125C7.43722 0.0239119 7.55705 0.000112036 7.67803 0H10.2718Z" fill="#ffffff"/>
</svg>
