<svg class="rich-terminal" viewBox="0 0 1995 1099.2" xmlns="http://www.w3.org/2000/svg">
    <!-- Generated with Rich https://www.textualize.io -->
    <style>

    @font-face {
        font-family: "Fira Code";
        src: local("FiraCode-Regular"),
                url("https://cdnjs.cloudflare.com/ajax/libs/firacode/6.2.0/woff2/FiraCode-Regular.woff2") format("woff2"),
                url("https://cdnjs.cloudflare.com/ajax/libs/firacode/6.2.0/woff/FiraCode-Regular.woff") format("woff");
        font-style: normal;
        font-weight: 400;
    }
    @font-face {
        font-family: "Fira Code";
        src: local("FiraCode-Bold"),
                url("https://cdnjs.cloudflare.com/ajax/libs/firacode/6.2.0/woff2/FiraCode-Bold.woff2") format("woff2"),
                url("https://cdnjs.cloudflare.com/ajax/libs/firacode/6.2.0/woff/FiraCode-Bold.woff") format("woff");
        font-style: bold;
        font-weight: 700;
    }

    .terminal-1958870825-matrix {
        font-family: Fira Code, monospace;
        font-size: 20px;
        line-height: 24.4px;
        font-variant-east-asian: full-width;
    }

    .terminal-1958870825-title {
        font-size: 18px;
        font-weight: bold;
        font-family: arial;
    }

    .terminal-1958870825-r1 { fill: #c5c8c6 }
.terminal-1958870825-r2 { fill: #e0e0e0 }
.terminal-1958870825-r3 { fill: #9d65ff;font-weight: bold }
.terminal-1958870825-r4 { fill: #999999 }
.terminal-1958870825-r5 { fill: #98e024;font-weight: bold }
.terminal-1958870825-r6 { fill: #7ae998 }
.terminal-1958870825-r7 { fill: #2d2d2d }
.terminal-1958870825-r8 { fill: #0a180e;font-weight: bold }
.terminal-1958870825-r9 { fill: #272727;font-weight: bold }
.terminal-1958870825-r10 { fill: #008139 }
.terminal-1958870825-r11 { fill: #0d0d0d }
.terminal-1958870825-r12 { fill: #ffa62b;font-weight: bold }
.terminal-1958870825-r13 { fill: #495259 }
    </style>

    <defs>
    <clipPath id="terminal-1958870825-clip-terminal">
      <rect x="0" y="0" width="1975.3999999999999" height="1048.2" />
    </clipPath>
    <clipPath id="terminal-1958870825-line-0">
    <rect x="0" y="1.5" width="1976.4" height="24.65"/>
            </clipPath>
<clipPath id="terminal-1958870825-line-1">
    <rect x="0" y="25.9" width="1976.4" height="24.65"/>
            </clipPath>
<clipPath id="terminal-1958870825-line-2">
    <rect x="0" y="50.3" width="1976.4" height="24.65"/>
            </clipPath>
<clipPath id="terminal-1958870825-line-3">
    <rect x="0" y="74.7" width="1976.4" height="24.65"/>
            </clipPath>
<clipPath id="terminal-1958870825-line-4">
    <rect x="0" y="99.1" width="1976.4" height="24.65"/>
            </clipPath>
<clipPath id="terminal-1958870825-line-5">
    <rect x="0" y="123.5" width="1976.4" height="24.65"/>
            </clipPath>
<clipPath id="terminal-1958870825-line-6">
    <rect x="0" y="147.9" width="1976.4" height="24.65"/>
            </clipPath>
<clipPath id="terminal-1958870825-line-7">
    <rect x="0" y="172.3" width="1976.4" height="24.65"/>
            </clipPath>
<clipPath id="terminal-1958870825-line-8">
    <rect x="0" y="196.7" width="1976.4" height="24.65"/>
            </clipPath>
<clipPath id="terminal-1958870825-line-9">
    <rect x="0" y="221.1" width="1976.4" height="24.65"/>
            </clipPath>
<clipPath id="terminal-1958870825-line-10">
    <rect x="0" y="245.5" width="1976.4" height="24.65"/>
            </clipPath>
<clipPath id="terminal-1958870825-line-11">
    <rect x="0" y="269.9" width="1976.4" height="24.65"/>
            </clipPath>
<clipPath id="terminal-1958870825-line-12">
    <rect x="0" y="294.3" width="1976.4" height="24.65"/>
            </clipPath>
<clipPath id="terminal-1958870825-line-13">
    <rect x="0" y="318.7" width="1976.4" height="24.65"/>
            </clipPath>
<clipPath id="terminal-1958870825-line-14">
    <rect x="0" y="343.1" width="1976.4" height="24.65"/>
            </clipPath>
<clipPath id="terminal-1958870825-line-15">
    <rect x="0" y="367.5" width="1976.4" height="24.65"/>
            </clipPath>
<clipPath id="terminal-1958870825-line-16">
    <rect x="0" y="391.9" width="1976.4" height="24.65"/>
            </clipPath>
<clipPath id="terminal-1958870825-line-17">
    <rect x="0" y="416.3" width="1976.4" height="24.65"/>
            </clipPath>
<clipPath id="terminal-1958870825-line-18">
    <rect x="0" y="440.7" width="1976.4" height="24.65"/>
            </clipPath>
<clipPath id="terminal-1958870825-line-19">
    <rect x="0" y="465.1" width="1976.4" height="24.65"/>
            </clipPath>
<clipPath id="terminal-1958870825-line-20">
    <rect x="0" y="489.5" width="1976.4" height="24.65"/>
            </clipPath>
<clipPath id="terminal-1958870825-line-21">
    <rect x="0" y="513.9" width="1976.4" height="24.65"/>
            </clipPath>
<clipPath id="terminal-1958870825-line-22">
    <rect x="0" y="538.3" width="1976.4" height="24.65"/>
            </clipPath>
<clipPath id="terminal-1958870825-line-23">
    <rect x="0" y="562.7" width="1976.4" height="24.65"/>
            </clipPath>
<clipPath id="terminal-1958870825-line-24">
    <rect x="0" y="587.1" width="1976.4" height="24.65"/>
            </clipPath>
<clipPath id="terminal-1958870825-line-25">
    <rect x="0" y="611.5" width="1976.4" height="24.65"/>
            </clipPath>
<clipPath id="terminal-1958870825-line-26">
    <rect x="0" y="635.9" width="1976.4" height="24.65"/>
            </clipPath>
<clipPath id="terminal-1958870825-line-27">
    <rect x="0" y="660.3" width="1976.4" height="24.65"/>
            </clipPath>
<clipPath id="terminal-1958870825-line-28">
    <rect x="0" y="684.7" width="1976.4" height="24.65"/>
            </clipPath>
<clipPath id="terminal-1958870825-line-29">
    <rect x="0" y="709.1" width="1976.4" height="24.65"/>
            </clipPath>
<clipPath id="terminal-1958870825-line-30">
    <rect x="0" y="733.5" width="1976.4" height="24.65"/>
            </clipPath>
<clipPath id="terminal-1958870825-line-31">
    <rect x="0" y="757.9" width="1976.4" height="24.65"/>
            </clipPath>
<clipPath id="terminal-1958870825-line-32">
    <rect x="0" y="782.3" width="1976.4" height="24.65"/>
            </clipPath>
<clipPath id="terminal-1958870825-line-33">
    <rect x="0" y="806.7" width="1976.4" height="24.65"/>
            </clipPath>
<clipPath id="terminal-1958870825-line-34">
    <rect x="0" y="831.1" width="1976.4" height="24.65"/>
            </clipPath>
<clipPath id="terminal-1958870825-line-35">
    <rect x="0" y="855.5" width="1976.4" height="24.65"/>
            </clipPath>
<clipPath id="terminal-1958870825-line-36">
    <rect x="0" y="879.9" width="1976.4" height="24.65"/>
            </clipPath>
<clipPath id="terminal-1958870825-line-37">
    <rect x="0" y="904.3" width="1976.4" height="24.65"/>
            </clipPath>
<clipPath id="terminal-1958870825-line-38">
    <rect x="0" y="928.7" width="1976.4" height="24.65"/>
            </clipPath>
<clipPath id="terminal-1958870825-line-39">
    <rect x="0" y="953.1" width="1976.4" height="24.65"/>
            </clipPath>
<clipPath id="terminal-1958870825-line-40">
    <rect x="0" y="977.5" width="1976.4" height="24.65"/>
            </clipPath>
<clipPath id="terminal-1958870825-line-41">
    <rect x="0" y="1001.9" width="1976.4" height="24.65"/>
            </clipPath>
    </defs>

    <rect fill="#292929" stroke="rgba(255,255,255,0.35)" stroke-width="1" x="1" y="1" width="1993" height="1097.2" rx="8"/><text class="terminal-1958870825-title" fill="#c5c8c6" text-anchor="middle" x="996" y="27">OpenRAG&#160;TUI</text>
            <g transform="translate(26,22)">
            <circle cx="0" cy="0" r="7" fill="#ff5f57"/>
            <circle cx="22" cy="0" r="7" fill="#febc2e"/>
            <circle cx="44" cy="0" r="7" fill="#28c840"/>
            </g>
        
    <g transform="translate(9, 41)" clip-path="url(#terminal-1958870825-clip-terminal)">
    <rect fill="#121212" x="0" y="1.5" width="1976.4" height="24.65" shape-rendering="crispEdges"/><rect fill="#121212" x="0" y="25.9" width="12.2" height="24.65" shape-rendering="crispEdges"/><rect fill="#121212" x="12.2" y="25.9" width="1952" height="24.65" shape-rendering="crispEdges"/><rect fill="#121212" x="1964.2" y="25.9" width="12.2" height="24.65" shape-rendering="crispEdges"/><rect fill="#121212" x="0" y="50.3" width="12.2" height="24.65" shape-rendering="crispEdges"/><rect fill="#121212" x="12.2" y="50.3" width="1952" height="24.65" shape-rendering="crispEdges"/><rect fill="#121212" x="1964.2" y="50.3" width="12.2" height="24.65" shape-rendering="crispEdges"/><rect fill="#121212" x="0" y="74.7" width="12.2" height="24.65" shape-rendering="crispEdges"/><rect fill="#121212" x="12.2" y="74.7" width="1952" height="24.65" shape-rendering="crispEdges"/><rect fill="#121212" x="1964.2" y="74.7" width="12.2" height="24.65" shape-rendering="crispEdges"/><rect fill="#121212" x="0" y="99.1" width="12.2" height="24.65" shape-rendering="crispEdges"/><rect fill="#121212" x="12.2" y="99.1" width="1952" height="24.65" shape-rendering="crispEdges"/><rect fill="#121212" x="1964.2" y="99.1" width="12.2" height="24.65" shape-rendering="crispEdges"/><rect fill="#121212" x="0" y="123.5" width="12.2" height="24.65" shape-rendering="crispEdges"/><rect fill="#121212" x="12.2" y="123.5" width="1952" height="24.65" shape-rendering="crispEdges"/><rect fill="#121212" x="1964.2" y="123.5" width="12.2" height="24.65" shape-rendering="crispEdges"/><rect fill="#121212" x="0" y="147.9" width="12.2" height="24.65" shape-rendering="crispEdges"/><rect fill="#121212" x="12.2" y="147.9" width="1952" height="24.65" shape-rendering="crispEdges"/><rect fill="#121212" x="1964.2" y="147.9" width="12.2" height="24.65" shape-rendering="crispEdges"/><rect fill="#121212" x="0" y="172.3" width="12.2" height="24.65" shape-rendering="crispEdges"/><rect fill="#121212" x="12.2" y="172.3" width="1952" height="24.65" shape-rendering="crispEdges"/><rect fill="#121212" x="1964.2" y="172.3" width="12.2" height="24.65" shape-rendering="crispEdges"/><rect fill="#121212" x="0" y="196.7" width="12.2" height="24.65" shape-rendering="crispEdges"/><rect fill="#121212" x="12.2" y="196.7" width="1952" height="24.65" shape-rendering="crispEdges"/><rect fill="#121212" x="1964.2" y="196.7" width="12.2" height="24.65" shape-rendering="crispEdges"/><rect fill="#121212" x="0" y="221.1" width="12.2" height="24.65" shape-rendering="crispEdges"/><rect fill="#121212" x="12.2" y="221.1" width="1952" height="24.65" shape-rendering="crispEdges"/><rect fill="#121212" x="1964.2" y="221.1" width="12.2" height="24.65" shape-rendering="crispEdges"/><rect fill="#121212" x="0" y="245.5" width="12.2" height="24.65" shape-rendering="crispEdges"/><rect fill="#121212" x="12.2" y="245.5" width="1952" height="24.65" shape-rendering="crispEdges"/><rect fill="#121212" x="1964.2" y="245.5" width="12.2" height="24.65" shape-rendering="crispEdges"/><rect fill="#121212" x="0" y="269.9" width="12.2" height="24.65" shape-rendering="crispEdges"/><rect fill="#121212" x="12.2" y="269.9" width="1952" height="24.65" shape-rendering="crispEdges"/><rect fill="#121212" x="1964.2" y="269.9" width="12.2" height="24.65" shape-rendering="crispEdges"/><rect fill="#121212" x="0" y="294.3" width="12.2" height="24.65" shape-rendering="crispEdges"/><rect fill="#121212" x="12.2" y="294.3" width="976" height="24.65" shape-rendering="crispEdges"/><rect fill="#121212" x="988.2" y="294.3" width="0" height="24.65" shape-rendering="crispEdges"/><rect fill="#121212" x="988.2" y="294.3" width="976" height="24.65" shape-rendering="crispEdges"/><rect fill="#121212" x="1964.2" y="294.3" width="12.2" height="24.65" shape-rendering="crispEdges"/><rect fill="#121212" x="0" y="318.7" width="12.2" height="24.65" shape-rendering="crispEdges"/><rect fill="#121212" x="12.2" y="318.7" width="610" height="24.65" shape-rendering="crispEdges"/><rect fill="#121212" x="622.2" y="318.7" width="719.8" height="24.65" shape-rendering="crispEdges"/><rect fill="#121212" x="1342" y="318.7" width="622.2" height="24.65" shape-rendering="crispEdges"/><rect fill="#121212" x="1964.2" y="318.7" width="12.2" height="24.65" shape-rendering="crispEdges"/><rect fill="#121212" x="0" y="343.1" width="12.2" height="24.65" shape-rendering="crispEdges"/><rect fill="#121212" x="12.2" y="343.1" width="610" height="24.65" shape-rendering="crispEdges"/><rect fill="#121212" x="622.2" y="343.1" width="732" height="24.65" shape-rendering="crispEdges"/><rect fill="#121212" x="1354.2" y="343.1" width="610" height="24.65" shape-rendering="crispEdges"/><rect fill="#121212" x="1964.2" y="343.1" width="12.2" height="24.65" shape-rendering="crispEdges"/><rect fill="#121212" x="0" y="367.5" width="12.2" height="24.65" shape-rendering="crispEdges"/><rect fill="#121212" x="12.2" y="367.5" width="610" height="24.65" shape-rendering="crispEdges"/><rect fill="#121212" x="622.2" y="367.5" width="732" height="24.65" shape-rendering="crispEdges"/><rect fill="#121212" x="1354.2" y="367.5" width="610" height="24.65" shape-rendering="crispEdges"/><rect fill="#121212" x="1964.2" y="367.5" width="12.2" height="24.65" shape-rendering="crispEdges"/><rect fill="#121212" x="0" y="391.9" width="12.2" height="24.65" shape-rendering="crispEdges"/><rect fill="#121212" x="12.2" y="391.9" width="610" height="24.65" shape-rendering="crispEdges"/><rect fill="#121212" x="622.2" y="391.9" width="732" height="24.65" shape-rendering="crispEdges"/><rect fill="#121212" x="1354.2" y="391.9" width="610" height="24.65" shape-rendering="crispEdges"/><rect fill="#121212" x="1964.2" y="391.9" width="12.2" height="24.65" shape-rendering="crispEdges"/><rect fill="#121212" x="0" y="416.3" width="12.2" height="24.65" shape-rendering="crispEdges"/><rect fill="#121212" x="12.2" y="416.3" width="610" height="24.65" shape-rendering="crispEdges"/><rect fill="#121212" x="622.2" y="416.3" width="732" height="24.65" shape-rendering="crispEdges"/><rect fill="#121212" x="1354.2" y="416.3" width="610" height="24.65" shape-rendering="crispEdges"/><rect fill="#121212" x="1964.2" y="416.3" width="12.2" height="24.65" shape-rendering="crispEdges"/><rect fill="#121212" x="0" y="440.7" width="12.2" height="24.65" shape-rendering="crispEdges"/><rect fill="#121212" x="12.2" y="440.7" width="622.2" height="24.65" shape-rendering="crispEdges"/><rect fill="#121212" x="634.4" y="440.7" width="695.4" height="24.65" shape-rendering="crispEdges"/><rect fill="#121212" x="1329.8" y="440.7" width="634.4" height="24.65" shape-rendering="crispEdges"/><rect fill="#121212" x="1964.2" y="440.7" width="12.2" height="24.65" shape-rendering="crispEdges"/><rect fill="#121212" x="0" y="465.1" width="12.2" height="24.65" shape-rendering="crispEdges"/><rect fill="#121212" x="12.2" y="465.1" width="756.4" height="24.65" shape-rendering="crispEdges"/><rect fill="#121212" x="768.6" y="465.1" width="427" height="24.65" shape-rendering="crispEdges"/><rect fill="#121212" x="1195.6" y="465.1" width="768.6" height="24.65" shape-rendering="crispEdges"/><rect fill="#121212" x="1964.2" y="465.1" width="12.2" height="24.65" shape-rendering="crispEdges"/><rect fill="#121212" x="0" y="489.5" width="12.2" height="24.65" shape-rendering="crispEdges"/><rect fill="#121212" x="12.2" y="489.5" width="976" height="24.65" shape-rendering="crispEdges"/><rect fill="#121212" x="988.2" y="489.5" width="0" height="24.65" shape-rendering="crispEdges"/><rect fill="#121212" x="988.2" y="489.5" width="976" height="24.65" shape-rendering="crispEdges"/><rect fill="#121212" x="1964.2" y="489.5" width="12.2" height="24.65" shape-rendering="crispEdges"/><rect fill="#121212" x="0" y="513.9" width="12.2" height="24.65" shape-rendering="crispEdges"/><rect fill="#121212" x="12.2" y="513.9" width="634.4" height="24.65" shape-rendering="crispEdges"/><rect fill="#121212" x="646.6" y="513.9" width="671" height="24.65" shape-rendering="crispEdges"/><rect fill="#121212" x="1317.6" y="513.9" width="646.6" height="24.65" shape-rendering="crispEdges"/><rect fill="#121212" x="1964.2" y="513.9" width="12.2" height="24.65" shape-rendering="crispEdges"/><rect fill="#121212" x="0" y="538.3" width="12.2" height="24.65" shape-rendering="crispEdges"/><rect fill="#121212" x="12.2" y="538.3" width="976" height="24.65" shape-rendering="crispEdges"/><rect fill="#121212" x="988.2" y="538.3" width="0" height="24.65" shape-rendering="crispEdges"/><rect fill="#121212" x="988.2" y="538.3" width="976" height="24.65" shape-rendering="crispEdges"/><rect fill="#121212" x="1964.2" y="538.3" width="12.2" height="24.65" shape-rendering="crispEdges"/><rect fill="#121212" x="0" y="562.7" width="12.2" height="24.65" shape-rendering="crispEdges"/><rect fill="#121212" x="12.2" y="562.7" width="976" height="24.65" shape-rendering="crispEdges"/><rect fill="#121212" x="988.2" y="562.7" width="0" height="24.65" shape-rendering="crispEdges"/><rect fill="#121212" x="988.2" y="562.7" width="976" height="24.65" shape-rendering="crispEdges"/><rect fill="#121212" x="1964.2" y="562.7" width="12.2" height="24.65" shape-rendering="crispEdges"/><rect fill="#121212" x="0" y="587.1" width="12.2" height="24.65" shape-rendering="crispEdges"/><rect fill="#121212" x="12.2" y="587.1" width="1952" height="24.65" shape-rendering="crispEdges"/><rect fill="#121212" x="1964.2" y="587.1" width="12.2" height="24.65" shape-rendering="crispEdges"/><rect fill="#121212" x="0" y="611.5" width="12.2" height="24.65" shape-rendering="crispEdges"/><rect fill="#121212" x="12.2" y="611.5" width="1952" height="24.65" shape-rendering="crispEdges"/><rect fill="#121212" x="1964.2" y="611.5" width="12.2" height="24.65" shape-rendering="crispEdges"/><rect fill="#121212" x="0" y="635.9" width="12.2" height="24.65" shape-rendering="crispEdges"/><rect fill="#121212" x="12.2" y="635.9" width="719.8" height="24.65" shape-rendering="crispEdges"/><rect fill="#4ebf71" x="732" y="635.9" width="244" height="24.65" shape-rendering="crispEdges"/><rect fill="#121212" x="976" y="635.9" width="12.2" height="24.65" shape-rendering="crispEdges"/><rect fill="#272727" x="988.2" y="635.9" width="244" height="24.65" shape-rendering="crispEdges"/><rect fill="#121212" x="1232.2" y="635.9" width="732" height="24.65" shape-rendering="crispEdges"/><rect fill="#121212" x="1964.2" y="635.9" width="12.2" height="24.65" shape-rendering="crispEdges"/><rect fill="#121212" x="0" y="660.3" width="12.2" height="24.65" shape-rendering="crispEdges"/><rect fill="#121212" x="12.2" y="660.3" width="719.8" height="24.65" shape-rendering="crispEdges"/><rect fill="#4ebf71" x="732" y="660.3" width="24.4" height="24.65" shape-rendering="crispEdges"/><rect fill="#4ebf71" x="756.4" y="660.3" width="195.2" height="24.65" shape-rendering="crispEdges"/><rect fill="#4ebf71" x="951.6" y="660.3" width="24.4" height="24.65" shape-rendering="crispEdges"/><rect fill="#121212" x="976" y="660.3" width="12.2" height="24.65" shape-rendering="crispEdges"/><rect fill="#272727" x="988.2" y="660.3" width="12.2" height="24.65" shape-rendering="crispEdges"/><rect fill="#e0e0e0" x="1000.4" y="660.3" width="219.6" height="24.65" shape-rendering="crispEdges"/><rect fill="#272727" x="1220" y="660.3" width="12.2" height="24.65" shape-rendering="crispEdges"/><rect fill="#121212" x="1232.2" y="660.3" width="732" height="24.65" shape-rendering="crispEdges"/><rect fill="#121212" x="1964.2" y="660.3" width="12.2" height="24.65" shape-rendering="crispEdges"/><rect fill="#121212" x="0" y="684.7" width="12.2" height="24.65" shape-rendering="crispEdges"/><rect fill="#121212" x="12.2" y="684.7" width="719.8" height="24.65" shape-rendering="crispEdges"/><rect fill="#4ebf71" x="732" y="684.7" width="244" height="24.65" shape-rendering="crispEdges"/><rect fill="#121212" x="976" y="684.7" width="12.2" height="24.65" shape-rendering="crispEdges"/><rect fill="#272727" x="988.2" y="684.7" width="244" height="24.65" shape-rendering="crispEdges"/><rect fill="#121212" x="1232.2" y="684.7" width="732" height="24.65" shape-rendering="crispEdges"/><rect fill="#121212" x="1964.2" y="684.7" width="12.2" height="24.65" shape-rendering="crispEdges"/><rect fill="#121212" x="0" y="709.1" width="12.2" height="24.65" shape-rendering="crispEdges"/><rect fill="#121212" x="12.2" y="709.1" width="1952" height="24.65" shape-rendering="crispEdges"/><rect fill="#121212" x="1964.2" y="709.1" width="12.2" height="24.65" shape-rendering="crispEdges"/><rect fill="#121212" x="0" y="733.5" width="12.2" height="24.65" shape-rendering="crispEdges"/><rect fill="#121212" x="12.2" y="733.5" width="1952" height="24.65" shape-rendering="crispEdges"/><rect fill="#121212" x="1964.2" y="733.5" width="12.2" height="24.65" shape-rendering="crispEdges"/><rect fill="#121212" x="0" y="757.9" width="12.2" height="24.65" shape-rendering="crispEdges"/><rect fill="#121212" x="12.2" y="757.9" width="1952" height="24.65" shape-rendering="crispEdges"/><rect fill="#121212" x="1964.2" y="757.9" width="12.2" height="24.65" shape-rendering="crispEdges"/><rect fill="#121212" x="0" y="782.3" width="12.2" height="24.65" shape-rendering="crispEdges"/><rect fill="#121212" x="12.2" y="782.3" width="1952" height="24.65" shape-rendering="crispEdges"/><rect fill="#121212" x="1964.2" y="782.3" width="12.2" height="24.65" shape-rendering="crispEdges"/><rect fill="#121212" x="0" y="806.7" width="12.2" height="24.65" shape-rendering="crispEdges"/><rect fill="#121212" x="12.2" y="806.7" width="1952" height="24.65" shape-rendering="crispEdges"/><rect fill="#121212" x="1964.2" y="806.7" width="12.2" height="24.65" shape-rendering="crispEdges"/><rect fill="#121212" x="0" y="831.1" width="12.2" height="24.65" shape-rendering="crispEdges"/><rect fill="#121212" x="12.2" y="831.1" width="1952" height="24.65" shape-rendering="crispEdges"/><rect fill="#121212" x="1964.2" y="831.1" width="12.2" height="24.65" shape-rendering="crispEdges"/><rect fill="#121212" x="0" y="855.5" width="12.2" height="24.65" shape-rendering="crispEdges"/><rect fill="#121212" x="12.2" y="855.5" width="1952" height="24.65" shape-rendering="crispEdges"/><rect fill="#121212" x="1964.2" y="855.5" width="12.2" height="24.65" shape-rendering="crispEdges"/><rect fill="#121212" x="0" y="879.9" width="12.2" height="24.65" shape-rendering="crispEdges"/><rect fill="#121212" x="12.2" y="879.9" width="1952" height="24.65" shape-rendering="crispEdges"/><rect fill="#121212" x="1964.2" y="879.9" width="12.2" height="24.65" shape-rendering="crispEdges"/><rect fill="#121212" x="0" y="904.3" width="12.2" height="24.65" shape-rendering="crispEdges"/><rect fill="#121212" x="12.2" y="904.3" width="1952" height="24.65" shape-rendering="crispEdges"/><rect fill="#121212" x="1964.2" y="904.3" width="12.2" height="24.65" shape-rendering="crispEdges"/><rect fill="#121212" x="0" y="928.7" width="12.2" height="24.65" shape-rendering="crispEdges"/><rect fill="#121212" x="12.2" y="928.7" width="1952" height="24.65" shape-rendering="crispEdges"/><rect fill="#121212" x="1964.2" y="928.7" width="12.2" height="24.65" shape-rendering="crispEdges"/><rect fill="#121212" x="0" y="953.1" width="12.2" height="24.65" shape-rendering="crispEdges"/><rect fill="#121212" x="12.2" y="953.1" width="1952" height="24.65" shape-rendering="crispEdges"/><rect fill="#121212" x="1964.2" y="953.1" width="12.2" height="24.65" shape-rendering="crispEdges"/><rect fill="#121212" x="0" y="977.5" width="12.2" height="24.65" shape-rendering="crispEdges"/><rect fill="#121212" x="12.2" y="977.5" width="1952" height="24.65" shape-rendering="crispEdges"/><rect fill="#121212" x="1964.2" y="977.5" width="12.2" height="24.65" shape-rendering="crispEdges"/><rect fill="#121212" x="0" y="1001.9" width="1976.4" height="24.65" shape-rendering="crispEdges"/><rect fill="#242f38" x="0" y="1026.3" width="36.6" height="24.65" shape-rendering="crispEdges"/><rect fill="#242f38" x="36.6" y="1026.3" width="61" height="24.65" shape-rendering="crispEdges"/><rect fill="#242f38" x="97.6" y="1026.3" width="36.6" height="24.65" shape-rendering="crispEdges"/><rect fill="#242f38" x="134.2" y="1026.3" width="146.4" height="24.65" shape-rendering="crispEdges"/><rect fill="#242f38" x="280.6" y="1026.3" width="36.6" height="24.65" shape-rendering="crispEdges"/><rect fill="#242f38" x="317.2" y="1026.3" width="183" height="24.65" shape-rendering="crispEdges"/><rect fill="#242f38" x="500.2" y="1026.3" width="36.6" height="24.65" shape-rendering="crispEdges"/><rect fill="#242f38" x="536.8" y="1026.3" width="207.4" height="24.65" shape-rendering="crispEdges"/><rect fill="#242f38" x="744.2" y="1026.3" width="36.6" height="24.65" shape-rendering="crispEdges"/><rect fill="#242f38" x="780.8" y="1026.3" width="146.4" height="24.65" shape-rendering="crispEdges"/><rect fill="#242f38" x="927.2" y="1026.3" width="902.8" height="24.65" shape-rendering="crispEdges"/><rect fill="#242f38" x="1830" y="1026.3" width="12.2" height="24.65" shape-rendering="crispEdges"/><rect fill="#242f38" x="1842.2" y="1026.3" width="24.4" height="24.65" shape-rendering="crispEdges"/><rect fill="#242f38" x="1866.6" y="1026.3" width="97.6" height="24.65" shape-rendering="crispEdges"/><rect fill="#242f38" x="1964.2" y="1026.3" width="12.2" height="24.65" shape-rendering="crispEdges"/>
    <g class="terminal-1958870825-matrix">
    <text class="terminal-1958870825-r1" x="1976.4" y="20" textLength="12.2" clip-path="url(#terminal-1958870825-line-0)">
</text><text class="terminal-1958870825-r1" x="1976.4" y="44.4" textLength="12.2" clip-path="url(#terminal-1958870825-line-1)">
</text><text class="terminal-1958870825-r1" x="1976.4" y="68.8" textLength="12.2" clip-path="url(#terminal-1958870825-line-2)">
</text><text class="terminal-1958870825-r1" x="1976.4" y="93.2" textLength="12.2" clip-path="url(#terminal-1958870825-line-3)">
</text><text class="terminal-1958870825-r1" x="1976.4" y="117.6" textLength="12.2" clip-path="url(#terminal-1958870825-line-4)">
</text><text class="terminal-1958870825-r1" x="1976.4" y="142" textLength="12.2" clip-path="url(#terminal-1958870825-line-5)">
</text><text class="terminal-1958870825-r1" x="1976.4" y="166.4" textLength="12.2" clip-path="url(#terminal-1958870825-line-6)">
</text><text class="terminal-1958870825-r1" x="1976.4" y="190.8" textLength="12.2" clip-path="url(#terminal-1958870825-line-7)">
</text><text class="terminal-1958870825-r1" x="1976.4" y="215.2" textLength="12.2" clip-path="url(#terminal-1958870825-line-8)">
</text><text class="terminal-1958870825-r1" x="1976.4" y="239.6" textLength="12.2" clip-path="url(#terminal-1958870825-line-9)">
</text><text class="terminal-1958870825-r1" x="1976.4" y="264" textLength="12.2" clip-path="url(#terminal-1958870825-line-10)">
</text><text class="terminal-1958870825-r1" x="1976.4" y="288.4" textLength="12.2" clip-path="url(#terminal-1958870825-line-11)">
</text><text class="terminal-1958870825-r1" x="1976.4" y="312.8" textLength="12.2" clip-path="url(#terminal-1958870825-line-12)">
</text><text class="terminal-1958870825-r3" x="622.2" y="337.2" textLength="719.8" clip-path="url(#terminal-1958870825-line-13)">██████╗&#160;██████╗&#160;███████╗███╗&#160;&#160;&#160;██╗██████╗&#160;&#160;█████╗&#160;&#160;██████╗&#160;</text><text class="terminal-1958870825-r1" x="1976.4" y="337.2" textLength="12.2" clip-path="url(#terminal-1958870825-line-13)">
</text><text class="terminal-1958870825-r3" x="622.2" y="361.6" textLength="732" clip-path="url(#terminal-1958870825-line-14)">██╔═══██╗██╔══██╗██╔════╝████╗&#160;&#160;██║██╔══██╗██╔══██╗██╔════╝&#160;</text><text class="terminal-1958870825-r1" x="1976.4" y="361.6" textLength="12.2" clip-path="url(#terminal-1958870825-line-14)">
</text><text class="terminal-1958870825-r3" x="622.2" y="386" textLength="732" clip-path="url(#terminal-1958870825-line-15)">██║&#160;&#160;&#160;██║██████╔╝█████╗&#160;&#160;██╔██╗&#160;██║██████╔╝███████║██║&#160;&#160;███╗</text><text class="terminal-1958870825-r1" x="1976.4" y="386" textLength="12.2" clip-path="url(#terminal-1958870825-line-15)">
</text><text class="terminal-1958870825-r3" x="622.2" y="410.4" textLength="732" clip-path="url(#terminal-1958870825-line-16)">██║&#160;&#160;&#160;██║██╔═══╝&#160;██╔══╝&#160;&#160;██║╚██╗██║██╔══██╗██╔══██║██║&#160;&#160;&#160;██║</text><text class="terminal-1958870825-r1" x="1976.4" y="410.4" textLength="12.2" clip-path="url(#terminal-1958870825-line-16)">
</text><text class="terminal-1958870825-r3" x="622.2" y="434.8" textLength="732" clip-path="url(#terminal-1958870825-line-17)">╚██████╔╝██║&#160;&#160;&#160;&#160;&#160;███████╗██║&#160;╚████║██║&#160;&#160;██║██║&#160;&#160;██║╚██████╔╝</text><text class="terminal-1958870825-r1" x="1976.4" y="434.8" textLength="12.2" clip-path="url(#terminal-1958870825-line-17)">
</text><text class="terminal-1958870825-r3" x="634.4" y="459.2" textLength="695.4" clip-path="url(#terminal-1958870825-line-18)">╚═════╝&#160;╚═╝&#160;&#160;&#160;&#160;&#160;╚══════╝╚═╝&#160;&#160;╚═══╝╚═╝&#160;&#160;╚═╝╚═╝&#160;&#160;╚═╝╚═════╝</text><text class="terminal-1958870825-r1" x="1976.4" y="459.2" textLength="12.2" clip-path="url(#terminal-1958870825-line-18)">
</text><text class="terminal-1958870825-r4" x="768.6" y="483.6" textLength="427" clip-path="url(#terminal-1958870825-line-19)">Terminal&#160;User&#160;Interface&#160;for&#160;OpenRAG</text><text class="terminal-1958870825-r1" x="1976.4" y="483.6" textLength="12.2" clip-path="url(#terminal-1958870825-line-19)">
</text><text class="terminal-1958870825-r1" x="1976.4" y="508" textLength="12.2" clip-path="url(#terminal-1958870825-line-20)">
</text><text class="terminal-1958870825-r5" x="646.6" y="532.4" textLength="671" clip-path="url(#terminal-1958870825-line-21)">OAuth&#160;credentials&#160;detected&#160;—&#160;Advanced&#160;Setup&#160;recommended</text><text class="terminal-1958870825-r1" x="1976.4" y="532.4" textLength="12.2" clip-path="url(#terminal-1958870825-line-21)">
</text><text class="terminal-1958870825-r1" x="1976.4" y="556.8" textLength="12.2" clip-path="url(#terminal-1958870825-line-22)">
</text><text class="terminal-1958870825-r1" x="1976.4" y="581.2" textLength="12.2" clip-path="url(#terminal-1958870825-line-23)">
</text><text class="terminal-1958870825-r1" x="1976.4" y="605.6" textLength="12.2" clip-path="url(#terminal-1958870825-line-24)">
</text><text class="terminal-1958870825-r1" x="1976.4" y="630" textLength="12.2" clip-path="url(#terminal-1958870825-line-25)">
</text><text class="terminal-1958870825-r6" x="732" y="654.4" textLength="244" clip-path="url(#terminal-1958870825-line-26)">▔▔▔▔▔▔▔▔▔▔▔▔▔▔▔▔▔▔▔▔</text><text class="terminal-1958870825-r7" x="988.2" y="654.4" textLength="244" clip-path="url(#terminal-1958870825-line-26)">▔▔▔▔▔▔▔▔▔▔▔▔▔▔▔▔▔▔▔▔</text><text class="terminal-1958870825-r1" x="1976.4" y="654.4" textLength="12.2" clip-path="url(#terminal-1958870825-line-26)">
</text><text class="terminal-1958870825-r8" x="756.4" y="678.8" textLength="195.2" clip-path="url(#terminal-1958870825-line-27)">&#160;Advanced&#160;Setup&#160;</text><text class="terminal-1958870825-r9" x="1000.4" y="678.8" textLength="219.6" clip-path="url(#terminal-1958870825-line-27)">&#160;Monitor&#160;Services&#160;</text><text class="terminal-1958870825-r1" x="1976.4" y="678.8" textLength="12.2" clip-path="url(#terminal-1958870825-line-27)">
</text><text class="terminal-1958870825-r10" x="732" y="703.2" textLength="244" clip-path="url(#terminal-1958870825-line-28)">▁▁▁▁▁▁▁▁▁▁▁▁▁▁▁▁▁▁▁▁</text><text class="terminal-1958870825-r11" x="988.2" y="703.2" textLength="244" clip-path="url(#terminal-1958870825-line-28)">▁▁▁▁▁▁▁▁▁▁▁▁▁▁▁▁▁▁▁▁</text><text class="terminal-1958870825-r1" x="1976.4" y="703.2" textLength="12.2" clip-path="url(#terminal-1958870825-line-28)">
</text><text class="terminal-1958870825-r1" x="1976.4" y="727.6" textLength="12.2" clip-path="url(#terminal-1958870825-line-29)">
</text><text class="terminal-1958870825-r1" x="1976.4" y="752" textLength="12.2" clip-path="url(#terminal-1958870825-line-30)">
</text><text class="terminal-1958870825-r1" x="1976.4" y="776.4" textLength="12.2" clip-path="url(#terminal-1958870825-line-31)">
</text><text class="terminal-1958870825-r1" x="1976.4" y="800.8" textLength="12.2" clip-path="url(#terminal-1958870825-line-32)">
</text><text class="terminal-1958870825-r1" x="1976.4" y="825.2" textLength="12.2" clip-path="url(#terminal-1958870825-line-33)">
</text><text class="terminal-1958870825-r1" x="1976.4" y="849.6" textLength="12.2" clip-path="url(#terminal-1958870825-line-34)">
</text><text class="terminal-1958870825-r1" x="1976.4" y="874" textLength="12.2" clip-path="url(#terminal-1958870825-line-35)">
</text><text class="terminal-1958870825-r1" x="1976.4" y="898.4" textLength="12.2" clip-path="url(#terminal-1958870825-line-36)">
</text><text class="terminal-1958870825-r1" x="1976.4" y="922.8" textLength="12.2" clip-path="url(#terminal-1958870825-line-37)">
</text><text class="terminal-1958870825-r1" x="1976.4" y="947.2" textLength="12.2" clip-path="url(#terminal-1958870825-line-38)">
</text><text class="terminal-1958870825-r1" x="1976.4" y="971.6" textLength="12.2" clip-path="url(#terminal-1958870825-line-39)">
</text><text class="terminal-1958870825-r1" x="1976.4" y="996" textLength="12.2" clip-path="url(#terminal-1958870825-line-40)">
</text><text class="terminal-1958870825-r1" x="1976.4" y="1020.4" textLength="12.2" clip-path="url(#terminal-1958870825-line-41)">
</text><text class="terminal-1958870825-r12" x="0" y="1044.8" textLength="36.6" clip-path="url(#terminal-1958870825-line-42)">&#160;q&#160;</text><text class="terminal-1958870825-r2" x="36.6" y="1044.8" textLength="61" clip-path="url(#terminal-1958870825-line-42)">Quit&#160;</text><text class="terminal-1958870825-r12" x="97.6" y="1044.8" textLength="36.6" clip-path="url(#terminal-1958870825-line-42)">&#160;1&#160;</text><text class="terminal-1958870825-r2" x="134.2" y="1044.8" textLength="146.4" clip-path="url(#terminal-1958870825-line-42)">Basic&#160;Setup&#160;</text><text class="terminal-1958870825-r12" x="280.6" y="1044.8" textLength="36.6" clip-path="url(#terminal-1958870825-line-42)">&#160;2&#160;</text><text class="terminal-1958870825-r2" x="317.2" y="1044.8" textLength="183" clip-path="url(#terminal-1958870825-line-42)">Advanced&#160;Setup&#160;</text><text class="terminal-1958870825-r12" x="500.2" y="1044.8" textLength="36.6" clip-path="url(#terminal-1958870825-line-42)">&#160;3&#160;</text><text class="terminal-1958870825-r2" x="536.8" y="1044.8" textLength="207.4" clip-path="url(#terminal-1958870825-line-42)">Monitor&#160;Services&#160;</text><text class="terminal-1958870825-r12" x="744.2" y="1044.8" textLength="36.6" clip-path="url(#terminal-1958870825-line-42)">&#160;4&#160;</text><text class="terminal-1958870825-r2" x="780.8" y="1044.8" textLength="146.4" clip-path="url(#terminal-1958870825-line-42)">Diagnostics&#160;</text><text class="terminal-1958870825-r13" x="1830" y="1044.8" textLength="12.2" clip-path="url(#terminal-1958870825-line-42)">▏</text><text class="terminal-1958870825-r12" x="1842.2" y="1044.8" textLength="24.4" clip-path="url(#terminal-1958870825-line-42)">^p</text><text class="terminal-1958870825-r2" x="1866.6" y="1044.8" textLength="97.6" clip-path="url(#terminal-1958870825-line-42)">&#160;palette</text>
    </g>
    </g>
</svg>
